<svg width="20" height="20" viewBox="0 0 20 20" fill="none" xmlns="http://www.w3.org/2000/svg">
<path d="M1.46 3.15H16.674C18.052 3.15 19.047 4.42 18.669 5.698L17.015 11.298C16.76 12.158 15.946 12.75 15.02 12.75H5.862C4.935 12.75 4.12 12.157 3.866 11.298L1.46 3.15ZM1.46 3.15L0.75 0.75M14.25 18.75C14.6478 18.75 15.0294 18.592 15.3107 18.3107C15.592 18.0294 15.75 17.6478 15.75 17.25C15.75 16.8522 15.592 16.4706 15.3107 16.1893C15.0294 15.908 14.6478 15.75 14.25 15.75C13.8522 15.75 13.4706 15.908 13.1893 16.1893C12.908 16.4706 12.75 16.8522 12.75 17.25C12.75 17.6478 12.908 18.0294 13.1893 18.3107C13.4706 18.592 13.8522 18.75 14.25 18.75ZM6.25 18.75C6.64782 18.75 7.02936 18.592 7.31066 18.3107C7.59196 18.0294 7.75 17.6478 7.75 17.25C7.75 16.8522 7.59196 16.4706 7.31066 16.1893C7.02936 15.908 6.64782 15.75 6.25 15.75C5.85218 15.75 5.47064 15.908 5.18934 16.1893C4.90804 16.4706 4.75 16.8522 4.75 17.25C4.75 17.6478 4.90804 18.0294 5.18934 18.3107C5.47064 18.592 5.85218 18.75 6.25 18.75Z" stroke="black" stroke-width="1.5" stroke-linecap="round" stroke-linejoin="round"/>
</svg>
