<svg width="22" height="15" viewBox="0 0 22 15" fill="none" xmlns="http://www.w3.org/2000/svg">
<path d="M1 6.36328C0.447715 6.36328 4.82823e-08 6.811 0 7.36328C-4.82823e-08 7.91557 0.447715 8.36328 1 8.36328L1 6.36328ZM21.7071 8.07039C22.0976 7.67987 22.0976 7.0467 21.7071 6.65618L15.3431 0.292215C14.9526 -0.0983097 14.3195 -0.0983098 13.9289 0.292215C13.5384 0.682739 13.5384 1.3159 13.9289 1.70643L19.5858 7.36328L13.9289 13.0201C13.5384 13.4107 13.5384 14.0438 13.9289 14.4344C14.3195 14.8249 14.9526 14.8249 15.3431 14.4344L21.7071 8.07039ZM1 8.36328L21 8.36328L21 6.36328L1 6.36328L1 8.36328Z" fill="#F3F7FF"/>
</svg>
