<svg width="22" height="20" viewBox="0 0 22 20" fill="none" xmlns="http://www.w3.org/2000/svg">
<path d="M10.75 4.125C10.75 4.125 10.75 4.125 9.90556 3C8.92778 1.695 7.48333 0.75 5.75 0.75C2.98333 0.75 0.75 3.01125 0.75 5.8125C0.75 6.85875 1.06111 7.82625 1.59444 8.625C2.49444 9.98625 10.75 18.75 10.75 18.75M10.75 4.125C10.75 4.125 10.75 4.125 11.5944 3C12.5722 1.695 14.0167 0.75 15.75 0.75C18.5167 0.75 20.75 3.01125 20.75 5.8125C20.75 6.85875 20.4389 7.82625 19.9056 8.625C19.0056 9.98625 10.75 18.75 10.75 18.75" stroke="black" stroke-width="1.5" stroke-linecap="round" stroke-linejoin="round"/>
</svg>
