<svg width="20" height="20" viewBox="0 0 20 20" fill="none" xmlns="http://www.w3.org/2000/svg">
<path d="M0.75 16.5C0.75 15.3065 1.22411 14.1619 2.06802 13.318C2.91193 12.4741 4.05653 12 5.25 12H14.25C15.4435 12 16.5881 12.4741 17.432 13.318C18.2759 14.1619 18.75 15.3065 18.75 16.5C18.75 17.0967 18.5129 17.669 18.091 18.091C17.669 18.5129 17.0967 18.75 16.5 18.75H3C2.40326 18.75 1.83097 18.5129 1.40901 18.091C0.987053 17.669 0.75 17.0967 0.75 16.5Z" stroke="black" stroke-width="1.5" stroke-linejoin="round"/>
<path d="M9.75 7.5C11.614 7.5 13.125 5.98896 13.125 4.125C13.125 2.26104 11.614 0.75 9.75 0.75C7.88604 0.75 6.375 2.26104 6.375 4.125C6.375 5.98896 7.88604 7.5 9.75 7.5Z" stroke="black" stroke-width="1.5"/>
</svg>
